<svg viewBox="-31 0 512 512" xmlns="http://www.w3.org/2000/svg"><path d="m420 120v76c0 8.398438-6.597656 15-15 15h-360c-8.402344 0-15-6.601562-15-15v-181c0-8.402344 6.597656-15 15-15h255zm0 0" fill="#ececf1"/><path d="m420 120v76c0 8.398438-6.597656 15-15 15h-180v-211h75zm0 0" fill="#e2e2e7"/><path d="m420 436v61c0 8.398438-6.597656 15-15 15h-360c-8.402344 0-15-6.601562-15-15v-61c0-8.402344 6.597656-15 15-15h360c8.402344 0 15 6.597656 15 15zm0 0" fill="#ececf1"/><path d="m420 436v61c0 8.398438-6.597656 15-15 15h-180v-91h180c8.402344 0 15 6.597656 15 15zm0 0" fill="#e2e2e7"/><path d="m415.585938 94.375-89.960938-89.960938c-2.691406-2.699218-7.925781-4.414062-10.625-4.414062h-15v105c0 8.285156 6.714844 15 15 15h105v-15c0-2.683594-1.707031-7.925781-4.414062-10.625zm0 0" fill="#babac0"/><path d="m405 181h-360c-24.902344 0-45 20.097656-45 45v180c0 24.898438 20.097656 45 45 45h360c24.902344 0 45-20.101562 45-45v-180c0-24.902344-20.097656-45-45-45zm0 0" fill="#ff7816"/><path d="m450 226v180c0 24.898438-20.097656 45-45 45h-180v-270h180c24.902344 0 45 20.097656 45 45zm0 0" fill="#ff4b00"/><path d="m105 391c-24.8125 0-45-20.1875-45-45v-60c0-24.8125 20.1875-45 45-45s45 20.1875 45 45c0 8.289062-6.710938 15-15 15s-15-6.710938-15-15c0-8.277344-6.722656-15-15-15s-15 6.722656-15 15v60c0 8.277344 6.722656 15 15 15s15-6.722656 15-15c0-8.289062 6.710938-15 15-15s15 6.710938 15 15c0 24.8125-20.1875 45-45 45zm0 0" fill="#ececf1"/><path d="m270 346c0 24.898438-20.097656 45-45 45s-45-20.101562-45-45c0-8.402344 6.597656-15 15-15s15 6.597656 15 15c0 8.398438 6.597656 15 15 15s15-6.601562 15-15c0-8.402344-6.597656-15-15-15-24.902344 0-45-20.101562-45-45 0-24.902344 20.097656-45 45-45s45 20.097656 45 45c0 8.398438-6.597656 15-15 15s-15-6.601562-15-15c0-8.402344-6.597656-15-15-15s-15 6.597656-15 15c0 8.398438 6.597656 15 15 15 24.902344 0 45 20.097656 45 45zm0 0" fill="#ececf1"/><g fill="#e2e2e7"><path d="m345 391c-24.8125 0-45-20.1875-45-45 0-8.289062 6.710938-15 15-15s15 6.710938 15 15c0 8.277344 6.722656 15 15 15s15-6.722656 15-15-6.722656-15-15-15c-24.8125 0-45-20.1875-45-45s20.1875-45 45-45 45 20.1875 45 45c0 8.289062-6.710938 15-15 15s-15-6.710938-15-15c0-8.277344-6.722656-15-15-15s-15 6.722656-15 15 6.722656 15 15 15c24.8125 0 45 20.1875 45 45s-20.1875 45-45 45zm0 0"/><path d="m270 346c0 24.898438-20.097656 45-45 45v-30c8.402344 0 15-6.601562 15-15 0-8.402344-6.597656-15-15-15v-30c24.902344 0 45 20.097656 45 45zm0 0"/><path d="m225 271v-30c24.902344 0 45 20.097656 45 45 0 8.398438-6.597656 15-15 15s-15-6.601562-15-15c0-8.402344-6.597656-15-15-15zm0 0"/></g></svg>